# xmcd
#
# Track frame offsets: 
#        150
#        21161
#        38533
#        60692
#        78365
#        94926
#        121210
#        137303
#        155073
#        178323
#        197509
#        225218
#
# Disc length: 3546 seconds
#
# Revision: 0
# Processed by: cddbd v1.5.2PL0 Copyright (c) Steve Scherf et al.
# Submitted via: ExactAudioCopy v0.95a4
#
DISCID=8e0dd80c
DTITLE=Hugo Race and the True Spirit - 53rd State
DYEAR=2008
DGENRE=Blues
TTITLE0=We create tomorrow
TTITLE1=Sorcery
TTITLE2=Dumb down
TTITLE3=Before the flood
TTITLE4=Sand
TTITLE5=Girl called sunset
TTITLE6=Coming clean
TTITLE7=When midnight comes
TTITLE8=53rd State
TTITLE9=Sodium rum
TTITLE10=Mystery World
TTITLE11=I wonder
EXTD=
EXTT0=
EXTT1=
EXTT2=
EXTT3=
EXTT4=
EXTT5=
EXTT6=
EXTT7=
EXTT8=
EXTT9=
EXTT10=
EXTT11=
PLAYORDER=
